<svg id="Layer_35" enable-background="new 0 0 64 64" height="512" viewBox="0 0 64 64" width="512" xmlns="http://www.w3.org/2000/svg"><path d="m33.21 16.05 1.79 11.95-3 2-3-2 1.79-11.95c-3.38.29-6.42 1.79-8.69 4.05-2.53 2.54-4.1 6.04-4.1 9.9v3h5 9 9 5v-3c0-7.32-5.63-13.33-12.79-13.95z" fill="#ff826e"/><path d="m33.21 16.05 1.79 11.95-3 2-3-2 1.79-11.95c.4-.03.8-.05 1.21-.05s.81.02 1.21.05z" fill="#e6e9ed"/><circle cx="32" cy="9" fill="#f0d0b4" r="7"/><path d="m56 39v19h-48v-19z" fill="#dfb28b"/><path d="m59 33c1.66 0 3 1.34 3 3 0 .83-.34 1.58-.88 2.12-.33.33-.73.58-1.18.72-.29.11-.61.16-.94.16h-3-48-3c-.33 0-.65-.05-.94-.16-1.2-.39-2.06-1.51-2.06-2.84 0-.83.34-1.58.88-2.12s1.29-.88 2.12-.88h13 5 9 9 5z" fill="#cf9e76"/><path d="m5 39h3v19 4h-4v-23l.06-.16c.29.11.61.16.94.16z" fill="#b27946"/><path d="m60 39v23h-4v-4-19h3c.33 0 .65-.05.94-.16z" fill="#b27946"/><path d="m25 43c1.66 0 3 1.34 3 3 0 .83-.34 1.58-.88 2.12s-1.29.88-2.12.88h-10c-1.66 0-3-1.34-3-3 0-.83.34-1.58.88-2.12s1.29-.88 2.12-.88z" fill="#e6e9ed"/><circle cx="52" cy="12" fill="#fcd770" r="10"/><path d="m59 32h-12v-2c0-6.735-4.462-12.445-10.585-14.335 2.158-1.434 3.585-3.885 3.585-6.665 0-4.411-3.589-8-8-8s-8 3.589-8 8c0 2.78 1.427 5.231 3.585 6.665-6.123 1.89-10.585 7.6-10.585 14.335v2h-12c-2.206 0-4 1.794-4 4 0 1.474.81 2.75 2 3.444v23.556h6v-4h46v4h6v-23.556c1.19-.694 2-1.97 2-3.444 0-2.206-1.794-4-4-4zm-25.083-4.48-1.917 1.278-1.917-1.278 1.576-10.503c.114-.003.226-.017.341-.017s.227.014.341.017zm-7.917-18.52c0-3.309 2.691-6 6-6s6 2.691 6 6-2.691 6-6 6-6-2.691-6-6zm-7 21c0-6.349 4.578-11.641 10.604-12.769l-1.687 11.249 4.083 2.722 4.083-2.722-1.688-11.249c6.027 1.128 10.605 6.42 10.605 12.769v2h-3v-8h-2v8h-16v-8h-2v8h-3zm-14 31v-21h2v21zm4-4v-17h46v17zm50 4h-2v-21h2zm0-23h-54c-1.103 0-2-.897-2-2s.897-2 2-2h54c1.103 0 2 .897 2 2s-.897 2-2 2z"/><path d="m25 42h-10c-2.206 0-4 1.794-4 4s1.794 4 4 4h10c2.206 0 4-1.794 4-4s-1.794-4-4-4zm0 6h-10c-1.103 0-2-.897-2-2s.897-2 2-2h10c1.103 0 2 .897 2 2s-.897 2-2 2z"/><path d="m23 13h-2v-8h-2v8h-2v-10h-2v10h-2v-8h-2v8h-2v-6h-2v6h-2v-4h-2v4h-2v2h22z"/><path d="m52 23c6.065 0 11-4.935 11-11s-4.935-11-11-11-11 4.935-11 11 4.935 11 11 11zm0-20c4.962 0 9 4.038 9 9s-4.038 9-9 9-9-4.038-9-9 4.038-9 9-9z"/><path d="m52 15c-.551 0-1-.449-1-1h-2c0 1.302.839 2.402 2 2.816v2.184h2v-2h2v-3c0-1.654-1.346-3-3-3-.551 0-1-.449-1-1v-1h1c.551 0 1 .449 1 1h2c0-1.302-.839-2.402-2-2.816v-2.184h-2v2h-2v3c0 1.654 1.346 3 3 3 .551 0 1 .449 1 1v1z"/><path d="m57 11h2v2h-2z"/><path d="m45 11h2v2h-2z"/></svg>