<svg id="Capa_1" enable-background="new 0 0 512 512" height="512" viewBox="0 0 512 512" width="512" xmlns="http://www.w3.org/2000/svg" xmlns:xlink="http://www.w3.org/1999/xlink"><linearGradient id="SVGID_1_" gradientUnits="userSpaceOnUse" x1="257.26" x2="257.26" y1="331" y2="0"><stop offset="0" stop-color="#fd3a84"/><stop offset="1" stop-color="#ffa68d"/></linearGradient><linearGradient id="SVGID_2_" gradientUnits="userSpaceOnUse" x1="76" x2="76" y1="512" y2="0"><stop offset="0" stop-color="#ffc2cc"/><stop offset="1" stop-color="#fff2f4"/></linearGradient><g><path d="m444.32 32.519c-1.991-1.328-49.341-32.519-98.32-32.519s-96.329 31.191-98.32 32.519c-.412.275-41.684 27.481-81.68 27.481-39.771 0-81.28-27.216-81.68-27.481-6.894-4.594-16.207-2.732-20.801 4.161l4.16 261.801c1.992 1.328 49.342 32.519 98.321 32.519s96.329-31.191 98.32-32.519c.412-.275 41.684-27.481 81.68-27.481 39.771 0 81.28 27.216 81.68 27.481 4.602 3.068 10.521 3.354 15.398.744s7.922-7.693 7.922-13.225v-241c0-5.015-2.507-9.699-6.68-12.481z" fill="url(#SVGID_1_)"/><path d="m76 512c-8.284 0-15-6.716-15-15v-482c0-8.284 6.716-15 15-15s15 6.716 15 15v482c0 8.284-6.716 15-15 15z" fill="url(#SVGID_2_)"/></g></svg>